<svg xmlns="http://www.w3.org/2000/svg" viewBox="0 0 59.58 60.67"><title>slack</title><g id="Layer_2" data-name="Layer 2"><g id="Layer_1-2" data-name="Layer 1"><path d="M27.29,46.47c0,2.71.12,5.43,0,8.13C27.08,58.07,25,60.21,22,60.34s-5.56-2.08-5.68-5.63q-.29-8.44,0-16.9a5.28,5.28,0,0,1,5.56-5.37c3.06,0,5.16,2.1,5.36,5.58C27.42,40.83,27.29,43.65,27.29,46.47Z"/><path d="M12.58,32.43c0,2.4.15,4.37,0,6.32-.31,3.57-2.8,5.74-6.08,5.54-3-.19-5-2.56-5.09-5.87a5.56,5.56,0,0,1,5.63-6C8.71,32.36,10.42,32.43,12.58,32.43Z"/><path d="M31.7,49.46c2.4,0,4.38-.14,6.32,0,3.57.32,5.74,2.81,5.54,6.09-.19,3-2.56,5.05-5.87,5.09a5.57,5.57,0,0,1-6-5.64C31.64,53.33,31.7,51.63,31.7,49.46Z"/><path d="M45.7,33.09c2.71,0,5.43-.12,8.13,0,3.47.19,5.62,2.26,5.74,5.27s-2.08,5.55-5.63,5.67c-5.63.19-11.27.19-16.89,0a5.29,5.29,0,0,1-5.38-5.56c0-3.06,2.1-5.16,5.58-5.36C40.06,33,42.88,33.09,45.7,33.09Z"/><path d="M47.54,27.88c0-2.41-.14-4.38,0-6.32.32-3.57,2.81-5.74,6.09-5.54,3,.19,5.05,2.56,5.09,5.86a5.57,5.57,0,0,1-5.64,6C51.41,27.94,49.71,27.88,47.54,27.88Z"/><path d="M31.17,13.88c0-2.71-.12-5.43,0-8.14C31.39,2.28,33.46.13,36.47,0S42,2.09,42.14,5.64c.19,5.63.19,11.27,0,16.89a5.28,5.28,0,0,1-5.56,5.37c-3.06,0-5.16-2.09-5.36-5.57C31.05,19.52,31.17,16.7,31.17,13.88Z"/><path d="M27.88,12.38c-2.41,0-4.38.14-6.32,0C18,12,15.82,9.54,16,6.26c.19-3,2.56-5,5.86-5.08a5.56,5.56,0,0,1,6,5.63C27.94,8.51,27.88,10.21,27.88,12.38Z"/><path d="M13.88,28.75c-2.71,0-5.43.12-8.14,0C2.28,28.53.13,26.46,0,23.45s2.08-5.55,5.63-5.67c5.63-.19,11.27-.19,16.89,0a5.27,5.27,0,0,1,5.37,5.55c0,3.06-2.09,5.16-5.57,5.36C19.52,28.88,16.7,28.75,13.88,28.75Z"/></g></g></svg>